<svg id="Layer_1" data-name="Layer 1" xmlns="http://www.w3.org/2000/svg" viewBox="0 0 426.41 114.07"><defs><style>.cls-1{fill:#010101;}.cls-2{fill:#231f20;}</style></defs><title>HTP_logos-HSP_long</title><path class="cls-1" d="M145.73,52c-6.89-12.2-22-13.78-29.8-9.54-8.62,4.68-13.58,12.92-14.75,24.48C98.29,62.11,94.29,58.41,91,55.4A39.26,39.26,0,0,1,85.85,50c11.37-.43,14.45-5.83,15.94-8.45a0.33,0.33,0,0,0,0-.31c-0.39-.79-0.74-1.57-1.11-2.4a60,60,0,0,0-4.5-8.47A16.56,16.56,0,0,0,89.92,25a5.08,5.08,0,0,0-.2-3.34,0.33,0.33,0,0,0-.38-0.19l-4.58,1a8.56,8.56,0,0,0-1.22-7.29,0.34,0.34,0,0,0-.27-0.15c-2.91-.12-15.46,2.86-23.69,19.5a92.44,92.44,0,0,0-5.91,15.74C52.28,55,51.28,58.4,49,59.93a1.58,1.58,0,0,1-2.18-.44l-3.28-4.8a0.34,0.34,0,0,0-.16-0.12l-7.89-3a0.34,0.34,0,0,0-.4.5L48,71a4.92,4.92,0,0,0,3.68,2.14,4.76,4.76,0,0,0,3.86-1.47l0,0c3.53-3.76,4.25-10.41,5-17.45,0.37-3.37.75-6.85,1.44-10.26C64.7,31,74.15,22.32,80.24,20.07a5.26,5.26,0,0,1-1.06,4.66,0.34,0.34,0,0,0,.19.53c4.06,0.93,9.35,3.08,12,5.81,2.52,2.56,4.31,6.2,5.49,8.61,0.26,0.53.5,1,.7,1.41-0.69.31-2,.1-3.41-1a0.34,0.34,0,0,0-.51.14A4.13,4.13,0,0,0,93.57,43C93,43.71,91.26,45,88.27,44a0.34,0.34,0,0,0-.37.11c-0.54.68-3.45,2.78-7.81,0.69a0.34,0.34,0,0,0-.47.23c-0.87,4,1.59,8.55,7.31,13.61C98.41,68.81,102,78.64,98,88.73c-3.54,8.88-12.32,14.82-21.39,14.45L72.47,96.9a2.42,2.42,0,0,0,1.09-1c0.45-.81.83-2-0.43-5.4a12.75,12.75,0,0,1,1-10.64,13,13,0,0,1,17.6-5.3c0.26,0.14.52,0.29,0.84,0.49A0.34,0.34,0,0,0,93,74.56a15.75,15.75,0,0,0-3.82-2.87c-5.55-3-9.92-1.87-13.43-1-2.33.59-4.35,1.11-6.16,0.3a15.22,15.22,0,0,0,1.24-13.55,0.33,0.33,0,0,0-.65.09,20.73,20.73,0,0,1-6.87,13.53,32.42,32.42,0,0,1-3.11,2.39c-0.75.53-1.54,1.09-2.26,1.66a6.31,6.31,0,0,0-1.27,8.45L58.27,86a0.33,0.33,0,0,0,.39.13,0.34,0.34,0,0,0,.22-0.35c-0.26-2.2.83-3.85,2.53-5.64,0.59-.62,1.26-1.27,2-1.95l0.94-.91a2.49,2.49,0,0,1,1.51,1.15c0.54,1,.42,1.91.21,3.54-0.09.73-.2,1.56-0.28,2.59a20.05,20.05,0,0,0,0,2.54,15,15,0,0,0,.3,2.28,11.68,11.68,0,0,0-5.36-.72,0.33,0.33,0,0,0-.26.2,0.34,0.34,0,0,0,0,.32L87.63,129a0.34,0.34,0,0,0,.28.15H88a0.34,0.34,0,0,0,.24-0.32v-8.52a0.34,0.34,0,0,0-.06-0.19l-7.76-11.38c9.23-1.14,16.52-6.25,21.11-14.81,3-5.63,3.83-12.61,4.62-19.36,0.93-8,1.89-16.31,6.65-22a16.32,16.32,0,0,1,11.66-6.31,18.93,18.93,0,0,1,13.41,4.64c3.79,3.46,6.54,9.63,3.8,15.15A14.22,14.22,0,0,0,134,63.7h-0.08c-7.49,0-13.38,6.19-16.6,17.32-3.45,11.92-8.38,23.17-21,24.83a0.34,0.34,0,0,0-.06.65,15,15,0,0,0,11.9-.72c6-3.05,10.8-10.25,14.28-21.39,3.17-10.15,7.05-14.62,12.62-14.49a9.06,9.06,0,0,1,7.15,4,0.34,0.34,0,0,0,.53,0c2.88-3.11,8.94-11.49,3-22M55.82,59A23.77,23.77,0,0,1,54.23,66a1.59,1.59,0,0,1-1.33.93,1.57,1.57,0,0,1-1.45-.69l-1-1.47c2.68-.83,4.39-3.62,5.36-5.84" transform="translate(-35.06 -15.08)"/><path class="cls-1" d="M84.87,35.68a4.94,4.94,0,0,0,1.51-.29,2.33,2.33,0,0,1,.75-0.16,0.16,0.16,0,0,0,.13,0,0.17,0.17,0,0,0,.05-0.12c0-1.65-.23-3.43-2-4.17a3.28,3.28,0,0,0-3.82,1.3,0.17,0.17,0,0,0,0,.11,3.45,3.45,0,0,0,2.25,3.17,3.24,3.24,0,0,0,1.15.21" transform="translate(-35.06 -15.08)"/><path class="cls-2" d="M128.5,105.28h1.91v7.5h9.75v-7.5h1.91v16.89h-1.91v-7.6H130.4v7.6H128.5V105.28Z" transform="translate(-35.06 -15.08)"/><path class="cls-2" d="M153.34,105.16h1.79l7.7,17h-2.05l-2-4.46H149.6l-2,4.46h-2ZM158,116l-3.84-8.59L150.34,116H158Z" transform="translate(-35.06 -15.08)"/><path class="cls-2" d="M166.4,105.28h1.79l10.64,13.54V105.28h1.86v16.89h-1.52l-10.91-13.85v13.85H166.4V105.28Z" transform="translate(-35.06 -15.08)"/><path class="cls-2" d="M185,113.77v0a8.61,8.61,0,1,1,17.23,0v0A8.61,8.61,0,1,1,185,113.77Zm15.25,0v0a6.72,6.72,0,0,0-6.66-7,6.64,6.64,0,0,0-6.61,6.93v0a6.72,6.72,0,0,0,6.66,7A6.63,6.63,0,0,0,200.21,113.77Z" transform="translate(-35.06 -15.08)"/><path class="cls-2" d="M204,105.28h2.12l6,14.55,6-14.55h2.05l-7.26,17h-1.69Z" transform="translate(-35.06 -15.08)"/><path class="cls-2" d="M223.82,105.28H236V107h-10.3v5.77h9.22v1.74h-9.22v5.91h10.42v1.74H223.82V105.28Z" transform="translate(-35.06 -15.08)"/><path class="cls-2" d="M240.24,105.28h7.26a6.66,6.66,0,0,1,4.8,1.69,4.66,4.66,0,0,1,1.3,3.33v0c0,2.8-1.93,4.44-4.58,4.92l5.19,6.9h-2.34l-4.9-6.56h-4.83v6.56h-1.91V105.28Zm7.09,8.61c2.53,0,4.34-1.3,4.34-3.47v-0.05c0-2.07-1.59-3.33-4.32-3.33h-5.21v6.85h5.19Z" transform="translate(-35.06 -15.08)"/><path class="cls-2" d="M264.31,119.71l1.18-1.4a8,8,0,0,0,5.79,2.39c2.27,0,3.76-1.21,3.76-2.87v0c0-1.57-.84-2.46-4.39-3.21-3.88-.84-5.67-2.1-5.67-4.87v0c0-2.66,2.34-4.61,5.55-4.61a8.81,8.81,0,0,1,5.94,2.07l-1.11,1.47a7.42,7.42,0,0,0-4.87-1.83c-2.2,0-3.6,1.21-3.6,2.73v0c0,1.59.87,2.48,4.58,3.28s5.5,2.2,5.5,4.78v0c0,2.89-2.41,4.78-5.77,4.78A9.88,9.88,0,0,1,264.31,119.71Z" transform="translate(-35.06 -15.08)"/><path class="cls-2" d="M296.5,122.67l-2.24-2a8.64,8.64,0,0,1-13.9-6.9v0a8.61,8.61,0,1,1,17.23,0v0a9,9,0,0,1-2,5.64l2.22,1.88Zm-3.59-3.23-3.16-2.7,1.28-1.42,3.16,2.87a7.22,7.22,0,0,0,1.42-4.41v0a6.71,6.71,0,0,0-6.66-7,6.64,6.64,0,0,0-6.61,6.93v0a6.72,6.72,0,0,0,6.66,7A6.47,6.47,0,0,0,292.91,119.44Z" transform="translate(-35.06 -15.08)"/><path class="cls-2" d="M301.6,115.1v-9.82h1.91V115c0,3.64,2,5.7,5.16,5.7s5.09-1.88,5.09-5.57v-9.82h1.91V115c0,4.92-2.82,7.48-7,7.48S301.6,119.88,301.6,115.1Z" transform="translate(-35.06 -15.08)"/><path class="cls-2" d="M326.08,105.16h1.79l7.7,17h-2.05l-2-4.46h-9.19l-2,4.46h-2Zm4.7,10.81-3.84-8.59L323.08,116h7.7Z" transform="translate(-35.06 -15.08)"/><path class="cls-2" d="M339.14,105.28h7.26a6.66,6.66,0,0,1,4.8,1.69,4.67,4.67,0,0,1,1.3,3.33v0c0,2.8-1.93,4.44-4.58,4.92l5.19,6.9h-2.34l-4.9-6.56H341v6.56h-1.91V105.28Zm7.09,8.61c2.53,0,4.34-1.3,4.34-3.47v-0.05c0-2.07-1.59-3.33-4.32-3.33H341v6.85h5.19Z" transform="translate(-35.06 -15.08)"/><path class="cls-2" d="M356.83,105.28H369V107h-10.3v5.77H368v1.74h-9.22v5.91h10.42v1.74H356.83V105.28Z" transform="translate(-35.06 -15.08)"/><path class="cls-2" d="M380.73,105.28h6.32c3.81,0,6.32,2,6.32,5.36v0c0,3.64-3,5.53-6.63,5.53h-4.1v6h-1.91V105.28Zm6.08,9.19c2.8,0,4.63-1.5,4.63-3.72v0c0-2.41-1.81-3.67-4.54-3.67h-4.27v7.43h4.17Z" transform="translate(-35.06 -15.08)"/><path class="cls-2" d="M398.06,105.28h7.26a6.66,6.66,0,0,1,4.8,1.69,4.67,4.67,0,0,1,1.3,3.33v0c0,2.8-1.93,4.44-4.58,4.92l5.19,6.9h-2.34l-4.9-6.56H400v6.56h-1.91V105.28Zm7.09,8.61c2.53,0,4.34-1.3,4.34-3.47v-0.05c0-2.07-1.59-3.33-4.32-3.33H400v6.85h5.19Z" transform="translate(-35.06 -15.08)"/><path class="cls-2" d="M416.12,105.28h12.21V107H418v5.77h9.22v1.74H418v5.91h10.42v1.74H416.12V105.28Z" transform="translate(-35.06 -15.08)"/><path class="cls-2" d="M432.39,119.71l1.18-1.4a8,8,0,0,0,5.79,2.39c2.27,0,3.76-1.21,3.76-2.87v0c0-1.57-.84-2.46-4.39-3.21-3.88-.84-5.67-2.1-5.67-4.87v0c0-2.66,2.34-4.61,5.55-4.61a8.81,8.81,0,0,1,5.94,2.07l-1.11,1.47a7.42,7.42,0,0,0-4.87-1.83c-2.2,0-3.6,1.21-3.6,2.73v0c0,1.59.87,2.48,4.58,3.28s5.5,2.2,5.5,4.78v0c0,2.89-2.41,4.78-5.77,4.78A9.88,9.88,0,0,1,432.39,119.71Z" transform="translate(-35.06 -15.08)"/><path class="cls-2" d="M448.8,119.71l1.18-1.4a8,8,0,0,0,5.79,2.39c2.27,0,3.76-1.21,3.76-2.87v0c0-1.57-.84-2.46-4.39-3.21-3.89-.84-5.67-2.1-5.67-4.87v0c0-2.66,2.34-4.61,5.55-4.61a8.81,8.81,0,0,1,5.94,2.07l-1.11,1.47a7.42,7.42,0,0,0-4.87-1.83c-2.2,0-3.6,1.21-3.6,2.73v0c0,1.59.87,2.48,4.58,3.28s5.5,2.2,5.5,4.78v0c0,2.89-2.41,4.78-5.77,4.78A9.88,9.88,0,0,1,448.8,119.71Z" transform="translate(-35.06 -15.08)"/></svg>